<?xml version="1.0" encoding="UTF-8"?>
<svg id="Calque_1" xmlns="http://www.w3.org/2000/svg" version="1.1" viewBox="0 0 328.8 283.02">
  <!-- Generator: Adobe Illustrator 29.8.3, SVG Export Plug-In . SVG Version: 2.1.1 Build 3)  -->
  <defs>
    <style>
      .st0 {
        fill: #2500ff;
      }

      .st1 {
        fill: #fff;
      }
    </style>
  </defs>
  <path class="st1" d="M143.76,162.99h4.2c2.54,0,6.86-1.63,9.08-2.92.79-.97,2.17-1.19,2.93-2.11,1.45-1.78.29-5.17.52-7.29l-.3-.61c-.53-.65-3.67-1.78-4.64-2.32-3.63-2.06-6.99-4.76-10.83-6.45-6.65-2.93-13.94-3.65-20.82-5.82-4.6-1.45-9.39-3.8-13.71-5.97-12.16-6.13-28.17-14.89-34.84-27.03-.08-.15-.37-.17-.4-.24-.32-.75.07-3.33.34-4.21,4.14-13.09,10.59-20.55,20.9-29.32,14.12-12.01,30.14-17.59,47.52-23.46,19.92-6.73,42.47-13.72,63.78-12.8,11.47.5,29.89,6.14,35.33,17.23,1.12,2.28.64,4.38.24,6.83-1.17,7.06-3.76,15.11-6.23,21.85-1.86,5.09-3.94,10.19-7.54,14.3l-8.37,2.19c-.98,1.4.33,1.62.55,2.33.7,2.31-1.38,3.15-1.15,4.5.15.86,1.55,1.24,2.26,1.56l.14.49c-1.69.59-3.58,3.99-4.92,4.56-.71.31-.14-1.14-.14-1.34,0-.41-.21-.79-.19-1.17.07-1.17.82-1.51-.14-2.54-1.01-1.09-3.44-1.76-4.29-.23-.54.97.52,1.16.57,1.37.4,1.63-.2,7.55-1.02,9.02-.46.83-1.58.74-1.4,1.96.19,1.28,3,2.3,4.02,1.88s.94-1.28,1.4-1.97c2.14-3.19,4.94-5.59,7.3-8.05,1.18-1.23,1.4-.96,2.52-1.81,4.18-3.17,7.49-7.49,12.14-10.42.87-.55,2.53-.5,1.68-1.95-.73-1.24-2.92-1.46-4.2-1.29-.78.1-2.86,1.36-1.33-.79,2.88-4.05,4.16-7.78,5.86-12.69,1.79-5.16,3.51-10.48,4.82-15.82.75-3.02,2.05-8.14,1.79-11.14-.07-.82-.99-2.39-1.47-3.11-2.71-4.07-8.27-9.03-12.64-11.17-1.07-.52-7.69-3.4-8.32-3.4-.4,0-.88.31-1.17.27-.08-.01-.37-.6-.87-.87-1-.52-3.81-1.17-5.04-1.44-15.31-3.48-36.29.27-51.18,4.03-1.86.47-3.28.93-5.05,1.65-.88.36-2.71.62-4.07,1.02-5.76,1.68-11.61,4.09-17.25,6.03-11.07,3.82-26.75,8.21-36.12,15.49-.56.44-1.15.15-1.07,1.44-.32-.05-.54-.18-.88-.06-1.97.7-5.98,4.42-7.69,5.83-7.59,6.23-15.61,13.18-19.33,22.37-.7,1.74-1.46,3.39-2.14,5.05-.54,1.33-2.16,4.87-2.12,6.03.08,2.81,3.45,6.79,5.29,8.89,3.41,3.89,8.58,8.15,12.92,11.08,11.27,7.59,26.79,15.53,39.87,18.93,5.07,1.32,10.33,1.93,15.05,4.39l12.67,7.73c.24,1.69.64,3.53-.23,5.07-4.8.08-10.47-1.58-14.9-3.62-1.14-.52-3.65-1.41-3.19-2.95.04-.13,1.32-2.05,1.53-2.32s.93-1.21,1.05-1.34c.56-.62,1.71-.25,1.71-1.42,0-.29-.17-1.19-.42-1.34-.67-.41-2.94-.67-3.67-.35-.82.36-.58,1.21-.85,1.79-.45.94-1.96,2.27-2.48,3.04-.44.64-1.42,2.54-1.11,3.21.23.5,2.62,1.97,3.23,2.29,2.14,1.1,4.63,1.61,6.72,2.88l8.88,2.28-1.55.73c-13.18,2.25-26.91,1.93-40.32,2.14-10.23.16-20.51.9-30.72.98-12.5.1-24.98-1.07-37.45-.95-1.26.01-3.46-.41-4.61.17-.57.29-.94.65-.76,1.33.42,1.28,4.8.79,6.03.94,2.92.34,6.6,1.91,9.58,2.66,9.77,2.45,23.18,5.15,33.2,5.21,9.89.06,19.83-2.39,29.5-4.36,7.16-1.46,12.46-4.08,19.94-3.33,6.78.68,11.4,3.28,17.64,4.92,2.68.7,5.45,1.05,8.16,1.56.4.38-3.22,4.65-3.72,5.04-.96.74-2.9,1.78-4.04,2.44-9.19,5.38-18.38,9.28-27.92,13.84-10.9,5.2-20.9,12.34-31.7,17.5-5.84,2.79-8.78,4.69-14.13,8.19-.89.58-2.15.73-2.86,1.72,1.34,3.12,5.24.45,7.31-.63,4.61-2.4,9.51-6.23,14.13-8.19,3.55-1.5,7.61-2.35,11.28-3.6,4.09-1.39,8.11-3.03,12.24-4.32,7.15-2.23,17.47-3.42,23.07-8.37.56-.5.75-1.36,1.06-1.7,2.87-3.26,7.15-6.87,10.17-9.99,4.26-4.41,4.82-6.09,10.95-8.61,1.94-.8,4.56-1.93,6.66-1.53,1.67.32,3.98,1.95,4.51,3.56-.7,1.22-1.76,2.05-2.5,3.29-2.37,4.01-4.65,11.51-6.04,16.04-2.1,6.87-3.73,13.93-5.77,20.88-.44,1.5-1.64,3.67-1.88,5.09-.08.51.19.87.14,1.28,0,.06-.58.44-.82.91-1.66,3.25-2.91,6.45-4.06,9.87-1.69,5.07-3.6,10.09-6.08,14.8-.37.7-2.51,3.57-2.22,4.06,1.42,1.19,2.67,1.61,4.26.37,1.19-2.3,2.3-4.63,3.31-7.01,2.56-6.05,4.76-13.16,7.67-18.97,1.36-2.71,3.35-4.73,5.03-7.21,6.89-10.16,13.64-23.58,14.98-35.9.32-2.93-.22-4.98-1.64-7.49l.06-.3c3-3.53,7.41-5.01,11.71-6.31,1.3-.39,5.22-1.67,6.31-1.63.48.02.85.23,1.25.45,3.42,1.86,5.63,4.1,6.73,7.91,4.84,16.75,9.29,33.53,14.29,50.27,2.28,7.63,4.52,15.95,7.73,23.23,1,2.27,1.65,5.2,4.74,4.51,1.81-.4.41-1.44.08-2.13-2.44-5.1-2.6-11.77-3.57-17.31-2.24-12.76-4.83-24.24-8.88-36.48-1.61-4.88-3.61-11.41-5.89-15.95-1.88-3.75-4.52-4.68-5.7-9.66-.39-1.65-1.22-6.32-.78-7.77.17-.58,3.98-2.37,4.69-2.51,1.91-.36,7.19,1.67,9.11,2.54,7.57,3.43,9.63,6.6,15.18,12.18,7.54,7.56,15.61,14.83,23.53,22.07,4.59,4.19,9.16,7.68,13.33,12.35,1.7,1.91,2.51,4.32,5.61,2.01.14-1.15-1.14-1.37-1.77-2-2.69-2.71-5.48-6.69-7.96-9.68-8.73-10.54-19.74-23.51-31.21-30.83-4.39-2.8-9.07-3.59-11.7-8.7l-8.29-7.07c-.14-.56,2.44-1.51,2.93-1.62,2.73-.65,6.36.42,9-.6s1.74-2.63,2.3-4.9c.17-.67.45-1.3.62-1.97.37-.51,6.32.01,7.35.1,9.88.85,18.81,3.36,28.57,4.79,7.08,1.04,13.94,2.73,21.1,3.36,1.03.09,2.1-.09,3.13,0,2.33.21,6.29,1.43,8.21,1.36,1.11-.04,1.38-1.12.66-1.84-.12-.12-1.73-.86-1.97-.91-8.68-1.92-17.72-2.37-26.52-3.72-6.48-1-12.92-3.05-19.75-4.01-5.87-.83-9.49-2.26-15.08-3.64-4.6-1.14-9.89-1.65-14.32-2.96-2.53-.75-4.46-2.67-5.44-5.12-.41-1.02-.54-1.39-.19-2.44.63-1.86,2.96-3.56,4.18-5,3.6-4.28,5.8-7.64,10.64-10.9,3.01-2.03,6.09-3.1,9.13-4.79,4.33-2.4,8.44-5.58,12.41-8.47.78-.57,3.64-1.33,2.76-2.77-.32-.52-2.21-1.26-2.86-1.2-1.18.12-3.06,2.16-4.11,2.86-4.15,2.76-8.35,5.47-12.43,8.21l-13.97,7.16c-.22-.36.03-.6-.59-.48-.05.27.18.63.15.85-.06.35-3.48,2.32-4.1,2.76-4.68,3.29-9.84,7.64-15.47,9.01-2.45.6-4.96.99-7.41,1.71-.83.24-1.34.35-1.15,1.28.34,1.75,3.11,1.84,4.54,1.62l5.69-2.01c2,.95,3.37,2.72,4.12,4.78,1.36,3.76,1.06,8.84-.59,12.45-.81,1.78-1.96,3.62-3.89,4.29-1.67.58-4.34.16-5.94-.56-2.34-1.07-5.27-4.01-6.37-6.09-.92-1.75-2.26-4.5-1.51-6.46.23-.61,1.1-1.27,1.16-1.94.12-1.35-2.85-1.7-3.77-1.15-.77.46-1.08,2.07-1.58,2.74-.6.81-2.33.37-2.02-1.06.19-.87,4.5-6.63,5.37-8.08,1.71-2.85,3.16-5.91,4.66-8.78,3.75-7.17,7.07-15.41,11.7-21.9,1.96-2.74,4.06-4.69,5.52-7.68.3-.61,2.31-2.15.65-2.85-2.6-1.09-3.82.54-5.49,2.2-5.86,5.82-8.67,13.3-12.78,20.22-.3.5-.57,1.87-.99,2.13-.56.35-1.6-.23-2.46-.07-.98.18-2.72,1.33-3.79,1.75-11.25,4.35-21.9,8.83-31.71,16.05-.87.74-7.34,3.84-7.53,4.23-.43.89.29,1.79,1.1,2.04,1.83.58,4.33-1.83,6.09-2.53,1.02-.4,6.87-2.05,7.54-1.64.38,1.91-.74,4.07-1.2,5.94-2.38-.03-4.71.3-7.08.49-.8.06-3.75-.37-3.95.87s1.49,1.97,2.54,2.04c1.37.09,2.42-.54,3.61-.71s2.69-.04,3.94-.26c-.96,2.83-1.4,5.77-1.98,8.69-.11.53-.71.69-.29,1.62.34.74,2.07,1.04,2.81.92,1.15-.19,7.15-2.35,8.09-2.97,1.85-1.2,2.76-4.7,3.37-6.72.1-.34-.15-.42.48-.35l1.41,2.31-.23.65c-1.28,1.49-2.53,3.09-3.92,4.49-.8.8-3.05,3.01-3.85,3.59-.44.32-1.36.37-1.53.88-.48,1.46,1.9,2.53,3.1,2.13.48-.16.89-.74,1.41-.99,4.57-2.2,10.91-2.97,15.95-2.48,1.59.15,4.94,1.57,5.93-.14s-3.78-1.9-4.64-2.1c-1.78-.42-5.76-2.76-7.06-4.09-.31-.32-.25-1.07-.99-1.17-.23-.39.67-1.59.96-1.97.35-.46,2.67-2.94,2.96-2.94,1.6.95,3.27,1.21,5.13,1.15,1.67,5.15,5.41,9.64,10.47,11.73,9.46,3.9,14.94-1.63,15.39-10.96.21-4.4-.59-8.09-3.62-11.37-.3-.32-2.16-1.43-1.81-1.91,4.83-2.18,9.11-5.38,13.44-8.4.59.76-3.01,3.63-3.61,4.2-.5.47-1.17,1.55-1.65,1.94s-1.17.42-1.4.64c-.4.39-.39,1.67-.59,2.17-.24.6-1.19,1.02-1.03,1.87,1.49.98,1.98,2.98,3.05,4.39,1.48,1.95,3.63,3.22,5.78,4.3l14.34,2.95c-2.79.76-5.58-1.06-8.26-.15-.47.31.11,1.58.1,2.07-.03,1-.77,4.67-1.59,5.13-2.05,1.15-7.54.22-10.04.52-.68.6-3.61,1.25-3.91,1.73-.13.21-.05.61-.2.87-.19.34-.75.71-.75,1.11,0,.14.59,1.15.71,1.25.51.42,1.38.22,2.03.49,1.56.64,3.55,2.86,4.86,4.02.22.19,2.49,1.76,2.16,2.03-3.54-1.29-7.77-3.12-11.57-2.33-.73.15-6.83,2.72-7.03,3.05l.12,4.8c-2.73-1.99-4.75-3.12-8.25-2.37-3.28.7-12.23,3.57-14.9,5.26-.59.37-2.77,2.37-3.14,2.41-.7.07-1.13-.78-1.71-1.17-1.63-1.1-4-2-5.96-2.2-2.82-.29-5.38,1.31-8.04,1.92.84-.83,2.17-1.84.91-2.96-4.43-1-9.06-1.17-13.44-2.38-2.05-.57-6.51-2.05-8.34-2.94-.28-.14-.66-.24-.72-.6ZM254.64,44.67l-1.44.12c.4.53,1.2.54,1.44-.12Z"/>
  <path class="st0" d="M132.45,166.95c.07.43.52.55.86.71,2.18,1.05,7.5,2.82,9.94,3.5,5.22,1.45,10.74,1.65,16.01,2.84,1.51,1.34-.08,2.53-1.08,3.52,3.17-.72,6.22-2.63,9.58-2.28,2.33.24,5.15,1.32,7.09,2.62.69.46,1.2,1.47,2.04,1.39.44-.04,3.03-2.43,3.73-2.87,3.19-2.01,13.84-5.43,17.75-6.26,4.17-.89,6.58.46,9.83,2.83l-.14-5.72c.24-.39,7.51-3.44,8.38-3.63,4.53-.95,9.56,1.23,13.78,2.77.39-.32-2.32-2.19-2.58-2.42-1.55-1.38-3.92-4.02-5.78-4.79-.77-.32-1.81-.09-2.42-.58-.14-.12-.84-1.32-.84-1.49,0-.47.66-.91.89-1.32.18-.31.08-.79.24-1.04.36-.57,3.84-1.35,4.65-2.06,2.98-.35,9.51.75,11.96-.62.98-.55,1.86-4.92,1.89-6.11.01-.58-.67-2.09-.12-2.46,3.19-1.09,6.51,1.08,9.84.18l-17.07-3.51c-2.56-1.28-5.13-2.8-6.89-5.11-1.28-1.69-1.85-4.07-3.63-5.23-.18-1.01.94-1.51,1.23-2.22.24-.59.23-2.12.71-2.58.27-.26,1.11-.3,1.67-.76s1.37-1.75,1.97-2.31c.71-.68,5-4.1,4.3-5-5.16,3.6-10.25,7.41-16,10.01-.42.57,1.8,1.89,2.15,2.27,3.6,3.91,4.56,8.3,4.31,13.54-.53,11.12-7.05,17.69-18.32,13.05-6.03-2.48-10.48-7.83-12.47-13.96-2.22.07-4.2-.24-6.11-1.36-.35,0-3.11,2.96-3.52,3.51-.34.45-1.42,1.89-1.15,2.35.88.11.81,1.01,1.18,1.39,1.55,1.59,6.29,4.38,8.41,4.87,1.02.24,6.75.37,5.53,2.5s-5.17.35-7.06.17c-6-.58-13.54.33-18.99,2.95-.62.3-1.11.99-1.68,1.18-1.43.47-4.27-.8-3.69-2.54.2-.61,1.3-.66,1.82-1.04.95-.7,3.63-3.32,4.58-4.28,1.65-1.66,3.14-3.57,4.67-5.34l.28-.77-1.67-2.75c-.75-.09-.45.01-.57.42-.72,2.4-1.81,6.57-4.01,8-1.13.73-8.26,3.31-9.64,3.53-.89.15-2.95-.21-3.35-1.1-.5-1.11.22-1.3.35-1.93.7-3.48,1.22-6.98,2.36-10.35-1.49.26-3.27.11-4.69.31s-2.67.96-4.3.84c-1.25-.09-3.26-.95-3.03-2.43s3.75-.96,4.7-1.04c2.81-.23,5.6-.61,8.42-.58.55-2.23,1.88-4.8,1.43-7.07-.79-.49-7.76,1.47-8.97,1.95-2.1.83-5.08,3.71-7.26,3.02-.97-.31-1.83-1.37-1.31-2.43.23-.46,7.93-4.16,8.97-5.04,11.68-8.6,24.37-13.93,37.76-19.11,1.27-.49,3.34-1.87,4.51-2.08,1.03-.18,2.27.5,2.93.09.5-.31.83-1.94,1.18-2.54,4.89-8.24,8.25-17.14,15.22-24.08,1.99-1.98,3.45-3.91,6.54-2.62,1.98.83-.41,2.66-.77,3.39-1.74,3.56-4.24,5.88-6.57,9.15-5.52,7.73-9.46,17.54-13.93,26.08-1.79,3.41-3.51,7.06-5.55,10.46-1.04,1.73-6.17,8.58-6.39,9.62-.36,1.7,1.7,2.22,2.41,1.26.59-.81.96-2.72,1.88-3.27,1.1-.66,4.63-.24,4.49,1.37-.07.8-1.11,1.59-1.38,2.31-.9,2.34.69,5.61,1.79,7.7,1.31,2.48,4.8,5.98,7.59,7.25,1.9.87,5.07,1.36,7.07.67,2.31-.8,3.67-2.98,4.63-5.11,1.96-4.3,2.33-10.35.7-14.83-.89-2.45-2.52-4.55-4.91-5.69l-6.78,2.39c-1.7.26-5,.16-5.4-1.93-.22-1.11.39-1.24,1.37-1.53,2.92-.86,5.9-1.33,8.82-2.04,6.7-1.63,12.85-6.81,18.42-10.72.74-.52,4.82-2.86,4.89-3.28.04-.26-.24-.69-.18-1.01.74-.15.44.14.71.57l16.63-8.53c4.86-3.27,9.86-6.5,14.8-9.78,1.25-.83,3.49-3.27,4.89-3.41.78-.08,3.03.81,3.41,1.43,1.05,1.71-2.36,2.62-3.28,3.3-4.73,3.44-9.63,7.23-14.78,10.08-3.63,2.01-7.29,3.29-10.87,5.7-5.76,3.88-8.38,7.88-12.67,12.98-1.45,1.72-4.23,3.73-4.97,5.95-.42,1.25-.27,1.68.22,2.9,1.17,2.91,3.46,5.2,6.48,6.09,5.28,1.56,11.57,2.16,17.05,3.52,6.65,1.65,10.96,3.35,17.95,4.34,8.14,1.15,15.8,3.58,23.52,4.77,10.47,1.61,21.24,2.14,31.58,4.43.28.06,2.2.94,2.34,1.08.85.85.53,2.14-.79,2.19-2.29.09-7-1.38-9.78-1.62-1.23-.11-2.51.1-3.73,0-8.53-.75-16.69-2.76-25.13-4-11.62-1.71-22.24-4.7-34.01-5.71-1.23-.11-8.3-.72-8.75-.12-.2.8-.54,1.55-.74,2.34-.67,2.7.33,4.64-2.74,5.83s-7.46-.05-10.72.72c-.58.14-3.66,1.27-3.49,1.93l9.87,8.42c3.14,6.08,8.71,7.02,13.94,10.35,13.66,8.71,26.77,24.16,37.16,36.71,2.95,3.57,6.28,8.3,9.48,11.53.75.76,2.28,1.02,2.11,2.39-3.69,2.76-4.66-.11-6.68-2.39-4.96-5.57-10.41-9.72-15.87-14.71-9.43-8.62-19.04-17.28-28.02-26.28-6.62-6.64-9.06-10.42-18.08-14.5-2.29-1.03-8.57-3.46-10.84-3.03-.84.16-5.38,2.3-5.58,2.99-.52,1.72.47,7.28.93,9.25,1.4,5.94,4.54,7.04,6.78,11.51,2.71,5.41,5.09,13.18,7.02,18.99,4.82,14.57,7.9,28.25,10.57,43.44,1.16,6.6,1.35,14.54,4.25,20.61.39.82,2.06,2.06-.09,2.54-3.68.82-4.45-2.67-5.65-5.37-3.83-8.66-6.5-18.57-9.21-27.66-5.95-19.93-11.26-39.92-17.01-59.86-1.31-4.54-3.94-7.2-8.02-9.42-.48-.26-.92-.51-1.49-.53-1.3-.06-5.96,1.47-7.51,1.94-5.12,1.55-10.37,3.32-13.94,7.52l-.07.36c1.69,2.99,2.33,5.43,1.95,8.92-1.59,14.67-9.62,30.66-17.83,42.75-2,2.95-4.37,5.35-5.99,8.58-3.47,6.92-6.09,15.39-9.13,22.59-1.2,2.84-2.53,5.61-3.94,8.35-1.89,1.47-3.37.98-5.07-.44-.34-.59,2.21-4.01,2.65-4.84,2.95-5.61,5.22-11.59,7.24-17.63,1.36-4.08,2.86-7.89,4.83-11.76.28-.55.96-1.01.97-1.08.06-.49-.26-.92-.16-1.52.28-1.69,1.71-4.27,2.23-6.06,2.42-8.27,4.36-16.68,6.86-24.86,1.65-5.39,4.36-14.33,7.19-19.1.88-1.48,2.14-2.46,2.97-3.91-.64-1.91-3.38-3.85-5.38-4.24-2.5-.48-5.62.87-7.93,1.82-7.3,3.01-7.97,5-13.04,10.25-3.6,3.72-8.7,8.02-12.11,11.9-.36.41-.59,1.44-1.26,2.03-6.68,5.9-18.96,7.31-27.47,9.96-4.92,1.53-9.71,3.48-14.58,5.14-4.37,1.49-9.21,2.49-13.44,4.28-5.5,2.33-11.33,6.9-16.83,9.75-2.47,1.28-7.11,4.46-8.7.75.84-1.17,2.34-1.35,3.4-2.04,6.38-4.16,9.87-6.42,16.83-9.75,12.86-6.14,24.77-14.64,37.75-20.84,11.36-5.42,22.31-10.07,33.25-16.48,1.35-.79,3.67-2.03,4.81-2.91.6-.46,4.9-5.54,4.43-6-3.23-.61-6.53-1.02-9.72-1.86-7.44-1.95-12.93-5.05-21.01-5.86-8.9-.89-15.21,2.23-23.74,3.97-11.52,2.34-23.36,5.26-35.13,5.19s-27.89-3.28-39.53-6.2c-3.55-.89-7.92-2.76-11.41-3.17-1.47-.17-6.68.41-7.19-1.12-.2-.82.24-1.25.91-1.59,1.37-.69,3.99-.19,5.49-.2,14.85-.14,29.72,1.25,44.6,1.13,12.15-.09,24.4-.98,36.58-1.17,15.96-.25,32.31.13,48.01-2.55l1.85-.86-10.58-2.71c-2.49-1.51-5.46-2.12-8-3.43-.73-.38-3.57-2.13-3.85-2.72-.37-.8.8-3.05,1.32-3.82.62-.92,2.42-2.5,2.95-3.62.33-.68.04-1.7,1.02-2.13.86-.38,3.57-.07,4.36.41.29.18.5,1.25.5,1.59,0,1.39-1.37.95-2.04,1.69-.14.16-1,1.28-1.25,1.6s-1.77,2.6-1.82,2.76c-.55,1.83,2.45,2.9,3.8,3.52,5.28,2.43,12.02,4.41,17.74,4.31,1.03-1.84.55-4.03.27-6.04l-15.09-9.21c-5.62-2.93-11.89-3.65-17.92-5.22-15.57-4.05-34.05-13.5-47.47-22.54-5.17-3.48-11.32-8.55-15.39-13.19-2.19-2.5-6.2-7.24-6.3-10.58-.04-1.38,1.88-5.6,2.53-7.18.81-1.98,1.71-3.94,2.54-6.02,4.42-10.94,13.98-19.22,23.01-26.64,2.04-1.68,6.82-6.11,9.16-6.94.4-.14.67.02,1.05.08-.09-1.54.61-1.2,1.28-1.72,11.17-8.67,29.84-13.9,43.02-18.44,6.72-2.32,13.68-5.19,20.54-7.19,1.62-.47,3.8-.78,4.84-1.21,2.1-.86,3.8-1.41,6.01-1.96,17.73-4.47,42.71-8.94,60.94-4.79,1.46.33,4.81,1.1,6,1.72.6.31.94,1.02,1.04,1.03.35.05.92-.32,1.39-.32.75,0,8.64,3.42,9.9,4.04,5.21,2.55,11.82,8.46,15.05,13.3.57.86,1.66,2.73,1.75,3.71.31,3.56-1.24,9.66-2.13,13.26-1.57,6.35-3.61,12.69-5.74,18.83-2.03,5.84-3.55,10.28-6.98,15.1-1.82,2.56.65,1.06,1.59.94,1.52-.2,4.13.06,5,1.54,1.02,1.73-.96,1.66-2,2.32-5.53,3.5-9.47,8.64-14.45,12.41-1.34,1.01-1.59.69-3,2.15-2.81,2.92-6.15,5.79-8.7,9.58-.55.82-.52,1.87-1.67,2.35-1.22.5-4.56-.72-4.78-2.24s1.11-1.34,1.66-2.33c.98-1.75,1.69-8.81,1.21-10.74-.06-.25-1.32-.48-.68-1.63,1.02-1.82,3.9-1.02,5.11.28,1.14,1.23.25,1.64.17,3.03-.03.44.21.9.22,1.39,0,.25-.68,1.96.17,1.6,1.59-.68,3.84-4.73,5.85-5.43l-.17-.58c-.85-.37-2.51-.83-2.69-1.85-.27-1.61,2.2-2.61,1.37-5.36-.25-.84-1.82-1.11-.65-2.77l9.96-2.61c4.29-4.9,6.76-10.97,8.97-17.03,2.94-8.02,6.02-17.62,7.42-26.02.48-2.92,1.05-5.42-.28-8.14-6.47-13.21-28.41-19.93-42.07-20.52-25.37-1.1-52.22,7.23-75.95,15.24-20.7,6.99-39.77,13.64-56.58,27.94-12.28,10.44-19.95,19.32-24.88,34.91-.33,1.04-.79,4.12-.41,5.01.03.08.38.11.48.28,7.94,14.45,27.01,24.89,41.48,32.19,5.15,2.59,10.85,5.38,16.32,7.11,8.19,2.58,16.87,3.45,24.79,6.93,4.57,2.01,8.57,5.23,12.9,7.68,1.15.65,4.89,1.99,5.53,2.77l.35.73c-.27,2.53,1.11,6.56-.62,8.68-.9,1.11-2.54,1.36-3.48,2.52-2.65,1.53-7.78,3.48-10.81,3.48h-5ZM194.75,111.23c-.24-.19-5.07,1.84-5.68,2.17-2.15,1.17-5.88,4.7-7.45,6.62-.52.64-3.29,4.43-2.87,4.92.92,0,1.83.55,2.73.58.83.03,1.49-.32,2.26-.3s1.72.52,2.37.51c1.03-.02,3.46-4.67,4.07-5.72.49-.84.73-1.35,1.23-2.27,1.15-2.15,2.37-4.26,3.35-6.51ZM178.46,117.51c-6.58,2.78-12.95,6.14-18.86,10.14.93.45,2.38-.94,2.98-.97.24-.01,1.95.06,2.18.09,1.08.16,1.67,1.2,1.36,2.25-.13.44-.79.78-1.05,1.25-1.23,2.24-1.22,5.1-2.04,7.53,1.13.02,3.76.04,3.68,1.57-.12,2.32-4.03.97-4.85,1.98-.38.48-2.05,6.32-2.2,7.23-.1.6-.09,1.19-.07,1.79.25.24,4.38-1.47,4.93-1.79,1.18-.68,2.5-3.38,3.01-4.71.29-.76,1.26-3.67,1.38-4.36.22-1.21-.73-2.51.98-3.29.57-.26,3.15.18,3.62.51.93.66,1.46,4.89,2.8,5.91,3.61-4.64,8.42-8.57,9.29-14.85-1.17.14-2.59.2-3.75.11-1.6-.13-7.38-.72-8.34-1.52-.22-.19-.42-.83-.42-1.1-.02-1.26.96-1.07,1.64-1.66,1.72-1.48,2.36-4.25,3.73-6.12ZM181.6,152.38c.12-.52-.16-.56-.48-.81-1.3-1.01-2.94-1.77-4.2-2.89l-3.9,4.55c2.86-.33,5.66-1.1,8.57-.86ZM103.58,168.1c-.63-.03-1.22-.33-1.86-.31-23.52.55-47.08,1.91-70.57.58l-6.44.15c3.12.77,6.21,1.72,9.37,2.35,15.12,3.02,30.77,5.32,46.13,2.57l23.37-5.34ZM273.91,204.39c-1.19-1.78-2.47-3.51-3.89-5.11-4.77-5.36-11.82-11.83-17.41-16.32-1.5-1.2-3.49-2.31-5.02-3.55l-1.11-.45c1.73,1.09,2.7,2.81,4,4.14,1.55,1.58,6.27,5.53,7.1,7.06.06.11-.32,1.74.75,2.23l.14-.86.86.14c2.93,2.58,5.98,5.08,8.86,7.71.46.42,5.11,5.56,5.71,5ZM160.74,230.68c.4-.08.59-.47.78-.79,5.21-8.6,10.21-18.6,12.98-28.18,1.17-4.05,1.41-8.36,1.94-12.35.09-.64.21-3-.41-3.27-3.24,5.39-5.76,11.4-7.68,17.4-2.5,7.82-4.66,16.21-6.61,24.03-.25.99-.87,2.1-1,3.15ZM141.59,190.67c-.48-.1-.83.14-1.24.33-11.73,5.58-23.17,11.8-35.12,16.89l-13.65,8.21c2.87-1.23,5.98-1.72,8.92-2.65,3.85-1.22,7.62-2.81,11.53-3.9,7.44-2.07,12.44-2.06,18.71-7.3l10.85-11.58ZM232.75,247.54c-.63-4.83-1.59-9.6-2.65-14.35-2.39-10.68-5.84-21.21-9.44-31.43l-3.05-6.81c.15.77.19,1.6.37,2.36,1.2,4.99,3.02,10.16,4.41,15,.43,1.49,1.55,4.74,1.66,6.06.04.44-.44.66-.44.73.01.2.62.31.76.51.73,1.08.82,3.18,1.16,4.42.83,3.05,2.14,6.3,2.56,9.43.29,2.12.53,1.19,1.09,2.62.93,2.39,1.28,6.09,2.23,8.63l1.33,2.81ZM276.48,206.96l-2-2c.12.8,1.21,1.89,2,2Z"/>
  <path d="M254.64,44.67c-.23.66-1.04.65-1.44.12l1.44-.12Z"/>
  <path class="st1" d="M264.72,196.59c-.66-.09-1.58-1-1.68-1.68l1.68,1.68Z"/>
</svg>