<?xml version="1.0" encoding="UTF-8"?>
<svg id="Calque_1" xmlns="http://www.w3.org/2000/svg" version="1.1" viewBox="0 0 542.31 542.31">
  <!-- Generator: Adobe Illustrator 29.8.4, SVG Export Plug-In . SVG Version: 2.1.1 Build 6)  -->
  <defs>
    <style>
      .st0 {
        fill: #e5ff00;
      }

      .st1 {
        fill: #2500ff;
      }
    </style>
  </defs>
  <circle class="st0" cx="230.65" cy="270.15" r="167.17"/>
  <path class="st1" d="M360.36,124.62l2.44,2.11c-.81-.71-1.62-1.41-2.44-2.11Z"/>
  <path class="st1" d="M362.81,415.57l-2.44,2.11c.82-.7,1.64-1.4,2.44-2.11Z"/>
  <g>
    <path class="st1" d="M236.08,483.3c-26.46,0-53.09-4.86-79.14-14.45-55.04-20.25-98.21-63.34-118.46-118.23-25.59-69.41-17.04-142.55,23.47-200.65,39.7-56.95,104.81-90.96,174.15-90.96,27.23,0,53.75,5.09,78.82,15.13,21.24,8.5,40.9,20.36,58.41,35.23l2.57,2.22,121.62,104.87v.79c13.34,14.66,20.84,33.82,20.84,53.88,0,23.32-10.13,45.44-27.79,60.67l-114.7,98.9-2.56,2.21c-17.52,14.87-37.17,26.72-58.41,35.23-25.09,10.05-51.61,15.14-78.82,15.14ZM236.08,145.55c-69.26,0-125.6,56.34-125.6,125.6s56.34,125.6,125.6,125.6,125.6-56.34,125.6-125.6-56.34-125.6-125.6-125.6Z"/>
    <path class="st0" d="M236.09,79.01c25.23,0,49.31,4.86,71.38,13.7,19.39,7.76,37.23,18.6,52.9,31.91l2.44,2.11,114.7,98.9h0s0,.01,0,.01c27.8,23.97,27.8,67.05,0,91.03l-114.7,98.9-2.44,2.11c-15.67,13.3-33.5,24.14-52.9,31.91-22.07,8.84-46.16,13.71-71.38,13.71-23.33,0-47.64-4.17-72.24-13.22-49.3-18.14-88.42-57.09-106.6-106.38C6.92,207.23,106.53,79.01,236.09,79.01M236.08,416.75c80.41,0,145.6-65.19,145.6-145.6s-65.19-145.6-145.6-145.6-145.6,65.19-145.6,145.6,65.19,145.6,145.6,145.6M236.09,39.01c-38.05,0-75.8,9.42-109.18,27.23-32.28,17.23-60.42,42.23-81.38,72.29C1.24,202.08-8.18,281.91,19.71,357.54c10.91,29.58,28.51,57.02,50.91,79.35,22.36,22.3,49.82,39.84,79.4,50.73,28.27,10.4,57.22,15.68,86.05,15.68s58.78-5.58,86.25-16.57c23.25-9.31,44.75-22.28,63.92-38.55l.14-.12.14-.12,2.44-2.11,114.66-98.86c22.08-19.04,34.73-46.68,34.73-75.82,0-22.33-7.44-43.77-20.84-61.13v-2.69l-13.88-11.98-114.66-98.86h0l-2.44-2.11-.13-.12-.13-.11c-19.16-16.28-40.67-29.25-63.93-38.56-27.44-10.99-56.46-16.56-86.24-16.56h0ZM236.08,376.75c-58.23,0-105.6-47.37-105.6-105.6s47.37-105.6,105.6-105.6,105.6,47.37,105.6,105.6-47.37,105.6-105.6,105.6h0Z"/>
  </g>
  <circle class="st1" cx="289.12" cy="271.15" r="56.33" transform="translate(-25.87 511.76) rotate(-80.54)"/>
  <circle class="st1" cx="159.89" cy="271.15" r="38.08"/>
</svg>