<?xml version="1.0" encoding="UTF-8"?>
<svg id="Calque_1" xmlns="http://www.w3.org/2000/svg" version="1.1" viewBox="0 0 500 500">
  <!-- Generator: Adobe Illustrator 29.8.3, SVG Export Plug-In . SVG Version: 2.1.1 Build 3)  -->
  <defs>
    <style>
      .st0 {
        fill: #e5ff00;
      }

      .st1 {
        fill: #2500ff;
      }
    </style>
  </defs>
  <circle class="st0" cx="298.24" cy="250" r="167.17"/>
  <path class="st1" d="M160.79,101.14l-2.44,2.11c.81-.71,1.62-1.41,2.44-2.11Z"/>
  <path class="st1" d="M158.34,392.09l2.44,2.11c-.82-.7-1.64-1.4-2.44-2.11Z"/>
  <path class="st1" d="M43.64,293.18l114.7,98.9,2.44,2.11c15.67,13.31,33.51,24.15,52.9,31.91,42.48,17.01,92.44,19.32,143.62.49,49.3-18.14,88.43-57.09,106.6-106.38,50.32-136.47-49.28-264.69-178.84-264.69-25.22,0-49.31,4.87-71.38,13.7-19.4,7.77-37.23,18.61-52.9,31.91l-2.44,2.11-114.7,98.9c-27.8,23.98-27.8,67.06,0,91.03h0ZM139.46,247.67c0-80.41,65.19-145.6,145.6-145.6s145.6,65.19,145.6,145.6-65.19,145.6-145.6,145.6-145.6-65.19-145.6-145.6h0Z"/>
  <circle class="st1" cx="232.03" cy="247.67" r="56.33"/>
  <circle class="st1" cx="361.26" cy="247.67" r="38.08"/>
</svg>