<?xml version="1.0" encoding="UTF-8"?>
<svg id="Calque_1" xmlns="http://www.w3.org/2000/svg" version="1.1" viewBox="0 0 500 500">
  <!-- Generator: Adobe Illustrator 29.8.3, SVG Export Plug-In . SVG Version: 2.1.1 Build 3)  -->
  <defs>
    <style>
      .st0 {
        fill: #e5ff00;
      }

      .st1 {
        fill: #2500ff;
      }
    </style>
  </defs>
  <circle class="st0" cx="209.5" cy="249" r="167.17"/>
  <path class="st1" d="M339.21,103.47l2.44,2.11c-.81-.71-1.62-1.41-2.44-2.11Z"/>
  <path class="st1" d="M341.66,394.42l-2.44,2.11c.82-.7,1.64-1.4,2.44-2.11Z"/>
  <path class="st1" d="M456.36,204.48l-114.7-98.9-2.44-2.11c-15.67-13.31-33.51-24.15-52.9-31.91-22.07-8.84-46.15-13.7-71.38-13.7-129.56,0-229.17,128.22-178.85,264.69,18.18,49.29,57.3,88.24,106.6,106.38,51.18,18.83,101.13,16.52,143.62-.49,19.4-7.77,37.23-18.61,52.9-31.91l2.44-2.11,114.7-98.9c27.8-23.98,27.8-67.06,0-91.03h.01ZM214.93,395.6c-80.41,0-145.6-65.19-145.6-145.6S134.52,104.4,214.93,104.4s145.6,65.19,145.6,145.6-65.19,145.6-145.6,145.6Z"/>
  <circle class="st1" cx="267.97" cy="250" r="56.33" transform="translate(-3.28 496.44) rotate(-85.27)"/>
  <circle class="st1" cx="138.74" cy="250" r="38.08"/>
</svg>