<?xml version="1.0" encoding="UTF-8"?>
<svg id="Calque_1" xmlns="http://www.w3.org/2000/svg" version="1.1" viewBox="0 0 542.77 542.77">
  <!-- Generator: Adobe Illustrator 29.8.4, SVG Export Plug-In . SVG Version: 2.1.1 Build 6)  -->
  <defs>
    <style>
      .st0 {
        fill: #e5ff00;
      }

      .st1 {
        fill: #2500ff;
      }
    </style>
  </defs>
  <circle class="st0" cx="319.63" cy="271.39" r="167.17"/>
  <path class="st1" d="M182.18,122.53l-2.44,2.11c.81-.71,1.62-1.41,2.44-2.11Z"/>
  <path class="st1" d="M179.73,413.48l2.44,2.11c-.82-.7-1.64-1.4-2.44-2.11Z"/>
  <g>
    <path class="st1" d="M306.44,481.19c-27.21,0-53.73-5.09-78.81-15.14-21.24-8.5-40.9-20.36-58.41-35.23l-2.57-2.22-121.62-104.87v-.78c-13.35-14.66-20.85-33.83-20.85-53.9,0-23.32,10.13-45.44,27.79-60.67l114.7-98.9,2.56-2.21c17.52-14.87,37.17-26.72,58.41-35.23,25.1-10.04,51.62-15.13,78.82-15.13,69.34,0,134.44,34,174.14,90.95,40.51,58.11,49.06,131.25,23.46,200.66-20.23,54.88-63.41,97.97-118.46,118.23-26.05,9.59-52.68,14.45-79.14,14.45h0ZM306.44,143.46c-69.26,0-125.6,56.34-125.6,125.6s56.34,125.6,125.6,125.6,125.6-56.34,125.6-125.6-56.34-125.6-125.6-125.6Z"/>
    <path class="st0" d="M306.45,76.91c129.56,0,229.16,128.22,178.84,264.69-18.17,49.29-57.3,88.24-106.6,106.38-24.6,9.05-48.9,13.22-72.24,13.22-25.22,0-49.31-4.87-71.38-13.71-19.39-7.76-37.23-18.6-52.9-31.91l-2.44-2.11-114.7-98.9h0c-27.8-23.98-27.8-67.06,0-91.04l114.7-98.9,2.44-2.11c15.67-13.3,33.5-24.14,52.9-31.91,22.07-8.83,46.16-13.7,71.38-13.7M306.45,414.66c80.41,0,145.6-65.19,145.6-145.6s-65.19-145.6-145.6-145.6-145.6,65.19-145.6,145.6,65.19,145.6,145.6,145.6M306.45,36.91c-29.76,0-58.77,5.57-86.24,16.56-23.25,9.31-44.76,22.28-63.93,38.55l-.14.12-.14.12-2.44,2.11-114.66,98.86c-22.08,19.04-34.73,46.68-34.73,75.82,0,22.34,7.44,43.78,20.85,61.15v2.68l13.88,11.98,114.66,98.86h0l2.44,2.11.13.12.13.11c19.16,16.28,40.67,29.25,63.93,38.56,27.45,10.99,56.47,16.57,86.24,16.57s57.78-5.27,86.05-15.68c29.59-10.89,57.05-28.43,79.41-50.73,22.4-22.34,40.01-49.79,50.91-79.36,27.89-75.63,18.48-155.46-25.82-219.01-20.96-30.06-49.09-55.06-81.37-72.29-33.38-17.81-71.13-27.23-109.17-27.23h0ZM306.45,374.66c-58.23,0-105.6-47.37-105.6-105.6s47.37-105.6,105.6-105.6,105.6,47.37,105.6,105.6-47.37,105.6-105.6,105.6h0Z"/>
  </g>
  <circle class="st1" cx="253.42" cy="269.06" r="56.33"/>
  <circle class="st1" cx="382.65" cy="269.06" r="38.08"/>
</svg>