<?xml version="1.0" encoding="UTF-8"?>
<svg id="Calque_1" xmlns="http://www.w3.org/2000/svg" version="1.1" viewBox="0 0 500 500">
  <!-- Generator: Adobe Illustrator 29.8.4, SVG Export Plug-In . SVG Version: 2.1.1 Build 6)  -->
  <defs>
    <style>
      .st0 {
        fill: #e5ff00;
      }

      .st1 {
        fill: #2500ff;
      }
    </style>
  </defs>
  <circle class="st0" cx="298.24" cy="250" r="167.17"/>
  <path class="st1" d="M160.79,101.14l-2.44,2.11c.81-.71,1.62-1.41,2.44-2.11Z"/>
  <path class="st1" d="M158.34,392.09l2.44,2.11c-.82-.7-1.64-1.4-2.44-2.11Z"/>
  <g>
    <path class="st1" d="M285.06,454.81c-26.57,0-52.46-4.97-76.95-14.78-20.74-8.3-39.93-19.88-57.04-34.4l-2.54-2.19-119.89-103.38v-.46c-13.33-13.91-20.85-32.47-20.85-51.93,0-21.87,9.49-42.6,26.05-56.88l114.7-98.9,2.53-2.19c17.11-14.52,36.3-26.09,57.03-34.4,24.51-9.8,50.4-14.78,76.96-14.78,67.71,0,131.27,33.2,170.04,88.81,39.56,56.75,47.9,128.21,22.88,196.07-19.72,53.5-61.82,95.52-115.5,115.27-25.5,9.38-51.54,14.14-77.41,14.14h0ZM285.06,117.07c-72.01,0-130.6,58.59-130.6,130.6s58.59,130.6,130.6,130.6,130.6-58.59,130.6-130.6-58.59-130.6-130.6-130.6Z"/>
    <path class="st0" d="M285.06,55.52c129.56,0,229.16,128.22,178.84,264.69-18.17,49.29-57.3,88.24-106.6,106.38-24.6,9.05-48.9,13.22-72.24,13.22-25.22,0-49.31-4.87-71.38-13.71-19.39-7.76-37.23-18.6-52.9-31.91l-2.44-2.11-114.7-98.9h0c-27.8-23.98-27.8-67.06,0-91.04l114.7-98.9,2.44-2.11c15.67-13.3,33.5-24.14,52.9-31.91,22.07-8.83,46.16-13.7,71.38-13.7M285.06,393.27c80.41,0,145.6-65.19,145.6-145.6s-65.19-145.6-145.6-145.6-145.6,65.19-145.6,145.6,65.19,145.6,145.6,145.6M285.06,25.52c-28.48,0-56.24,5.33-82.52,15.85-22.25,8.91-42.82,21.32-61.17,36.89l-.11.09-.1.09-2.44,2.11L24.05,179.42c-19.87,17.14-31.26,42.01-31.26,68.25,0,21.23,7.47,41.57,20.85,57.64v1.61l10.41,8.99,114.7,98.9,2.41,2.08.1.09.1.09c18.34,15.58,38.92,27.99,61.17,36.9,26.27,10.52,54.04,15.85,82.52,15.85s55.44-5.07,82.6-15.06c28.25-10.39,54.46-27.14,75.8-48.42,21.38-21.33,38.19-47.52,48.59-75.74,26.74-72.52,17.76-149-24.64-209.83-20.06-28.77-46.99-52.7-77.88-69.18-31.93-17.04-68.06-26.05-104.47-26.05h0ZM285.06,363.27c-30.88,0-59.91-12.02-81.74-33.86-21.83-21.83-33.86-50.86-33.86-81.74s12.02-59.91,33.86-81.74c21.83-21.83,50.86-33.86,81.74-33.86s59.91,12.02,81.74,33.86c21.83,21.83,33.86,50.86,33.86,81.74s-12.02,59.91-33.86,81.74c-21.83,21.83-50.86,33.86-81.74,33.86h0Z"/>
  </g>
  <circle class="st1" cx="232.03" cy="247.67" r="56.33"/>
  <circle class="st1" cx="361.26" cy="247.67" r="38.08"/>
</svg>