<?xml version="1.0" encoding="UTF-8"?>
<svg id="Calque_1" xmlns="http://www.w3.org/2000/svg" version="1.1" viewBox="0 0 500 500">
  <!-- Generator: Adobe Illustrator 29.8.3, SVG Export Plug-In . SVG Version: 2.1.1 Build 3)  -->
  <defs>
    <style>
      .st0 {
        fill: #2500ff;
      }

      .st1 {
        fill: #fff;
      }
    </style>
  </defs>
  <path class="st0" d="M339.21,103.47l2.44,2.11c-.81-.71-1.62-1.41-2.44-2.11Z"/>
  <path class="st0" d="M341.66,394.42l-2.44,2.11c.82-.7,1.64-1.4,2.44-2.11Z"/>
  <path class="st0" d="M214.93,57.86C85.38,57.86-14.23,186.08,36.09,322.55c18.18,49.29,57.3,88.24,106.6,106.38,51.18,18.83,101.13,16.52,143.62-.49V71.56c-22.07-8.84-46.15-13.7-71.38-13.7Z"/>
  <path class="st0" d="M407.08,250c0,57.56-25.32,109.21-65.42,144.42l114.7-98.9c27.8-23.98,27.8-67.06,0-91.03l-114.7-98.9c40.1,35.22,65.42,86.86,65.42,144.42Z"/>
  <path class="st0" d="M341.66,394.42c40.1-35.22,65.42-86.86,65.42-144.42s-25.32-109.21-65.42-144.42l-2.44-2.11c-15.67-13.31-33.51-24.15-52.9-31.91v356.88c19.4-7.77,37.23-18.61,52.9-31.91l2.44-2.11Z"/>
  <circle class="st1" cx="214.93" cy="250" r="145.6"/>
  <circle class="st0" cx="268.97" cy="250" r="56.33"/>
  <circle class="st0" cx="140.74" cy="250" r="38.08"/>
</svg>