<?xml version="1.0" encoding="UTF-8"?>
<svg id="Calque_1" xmlns="http://www.w3.org/2000/svg" version="1.1" viewBox="0 0 100 100">
  <!-- Generator: Adobe Illustrator 29.8.3, SVG Export Plug-In . SVG Version: 2.1.1 Build 3)  -->
  <defs>
    <style>
      .st0 {
        fill: #2a00ff;
      }
    </style>
  </defs>
  <path class="st0" d="M52.81,22.89v-3.38c0-.51.54-.69,1.04-.27.21.18.23.6.47.63.5,0,1.36-.78,1.97-1.12.79-.48,1.44.1.85.82l-3.13,4.03c-.4.4-1.21.2-1.21-.71Z"/>
  <path class="st0" d="M95.79,49.09c-.79-3.94-5.18-18.38-6.46-21.88C85.86,16.32,76.14.51,50,.51S14.14,16.32,10.66,27.22c-1.27,3.5-5.66,17.93-6.45,21.88-1.66,7.55-2.85,14.04-2.85,20.16,0,9.49,8.76,18.37,19.26,23.63.69.38,1.18.69,1.19,1.19v1.48c0,.58.53,1.41,1.32,1.75,5.1,1.84,15.69,2.09,26.87,2.18,11.18-.09,21.77-.34,26.87-2.18.79-.34,1.32-1.17,1.32-1.75v-1.48c0-.49.5-.81,1.19-1.19,10.51-5.25,19.26-14.14,19.26-23.63,0-6.13-1.19-12.61-2.85-20.16ZM25.51,58.01c-3.34,6.97-3.02,15.5-1.13,24.69.31,1.7-1.38,2.81-2.83,1.74-6.87-5.72-7.65-20.89.71-27.61,1.65-1.27,4.22-.99,3.25,1.18ZM43.28,84.31c-.17,1.19-.85,1.6-1.67,1.58-1.29,0-2.17-.88-2.87-2.47-5.35-13.46-1.49-27.57,2.89-27.7,1.53,0,2.43,1.25,2.53,3.31.31,8.51-.05,16.57-.89,25.27ZM59.31,84.35c-.84,1.14-2.7.41-2.7-1.72l.39-24.13c0-5.1,2.65-5.64,4.91-2,4.86,10.26,3.23,19.41-2.6,27.86ZM76.53,84.44c-1.18,1.14-3.22-.01-2.67-1.51,3.07-8.55,4.29-16.99,2.82-25.3-.23-1.17,1.44-1.89,2.35-.94,8.19,8.69,6.82,17.98-2.49,27.75ZM81.53,48.53c-3.58,1.35-8.03,1.89-19.36-.51-4.24-.82-9.47-.93-12.17-.93h0c-2.7,0-7.93.11-12.17.93-11.32,2.41-15.78,1.86-19.36.51-4.25-1.79-6.07-5.77-5.79-10.98.34-8.55,2.76-16.23,8.7-22.45,2.12-2.27,4.76-3.48,7.86-4.21,3-.6,6.83.07,11.66,1.5,3.03.73,6.06,1.16,9.1,1.17h0c3.04,0,6.07-.44,9.1-1.17,4.84-1.43,8.66-2.09,11.66-1.5,3.1.73,5.74,1.94,7.86,4.21,5.94,6.22,8.36,13.9,8.7,22.45.28,5.21-1.54,9.19-5.79,10.98Z"/>
  <path class="st0" d="M43.69,19.92l2.85,3.72c.3.31.62.37,1,.21.81-.37,1.28-1.81.82-2.67l-1.49-2.48c-.13-.3-.79-.12-.69.19l.92,1.77c0,.24-.36.03-.54-.05l-1.61-1.43c-.42-.3-.84-.29-1.26-.14-.29.11-.26.55,0,.88Z"/>
  <path class="st0" d="M83.59,29.05c1.95-7.91-7.67-17.2-17.95-15.56-2.76.46-5.33,1.5-7.66,3.24-.5.42.19.86.84.58l4.08-1.44c.96-.35,1.26,0,.9.34l-1.12,1.02c-.52.49.29,1.11.86.52,1.67-1.54,4.06-1.76,7.38-.3.42.23.33.91-.19.78-1.83-.48-3.46-.57-4.93-.34-.49.08-.56.7.06.68,3.59-.21,6.52.59,7.82,3.56.52,1.07,2.38,1.41,3.73.88.89-.33,1.66-.9,2.02-2.26.11-.42.76-.57,1.06-.18,2.24,2.96,3.08,5.66,2.56,8.09-.11.52.48.83.56.39Z"/>
  <path class="st0" d="M76.67,29.61c10.66,3.86,9.05,15.73-1.94,14.09-3.14-.58-5.35-1.93-7.13-3.62-1.38-1.32-3.35-2.4-6.25-3.29-.41-.15-.43-.76.07-.71,2.88.35,5.11,1.05,6.86,2.01.76.42,1.76.19,1.3-.18-1.2-1.13-2.63-2.09-4.23-2.92-.38-.19-.41-.59.26-.55,1.71.14,4.7,2.12,8.06,4.64.8.53,1.57.15,1.33-.6-.79-2.07-2.25-3.15-4.1-3.68-.47-.17-.15-.74.37-.76,1.83-.04,3.99,1.58,6.34,4.12.45.42,1.29.07.99-.65-1.11-1.99-2.54-3.31-4.18-3.89-.47-.2-.28-.89.34-.73,1.53.56,3.09,1.55,4.4,2.41.61.36.81-.35.38-.95-.83-1.2-2.22-2.05-4.04-2.64-.4-.15-.27-.68.22-.64.34,0,.98.16,1.64.47.43.24.57-.12.44-.35-.35-.52-.77-.75-1.44-1.02-.27-.11-.23-.69.3-.57Z"/>
  <path class="st0" d="M26.67,15.31c-3.09,2.07-4.55,4.29-3.98,7.09.24,1.04,1.21,1.97,3.21,1.02,1.28-.66,2.69-1.62,4.29-3.15,1.48-1.24,3.9-1.4,5.82-1.25.32.01.27-.38,0-.46-1.53-.42-2.91-.62-4.24-.46-.42.07-.57-.36-.18-.53,1.32-.5,2.75-.69,4.26-.65.48.02.47-.58-.04-.65-1.67-.21-3.19-.24-4.38.12-.5.08-.58-.54.23-.74,4.31-1.07,7.6-.56,9.96,1.39.43.26.72-.14.37-.51-2.27-1.76-4.49-2.99-8.6-2.65-.19.02-.56-.02-.71-.33-.46-1.06-1.61-1.62-3.55-1.56-5.73.2-11.23,7.92-13.25,15.06-.19.76.87,1.12,1.21.21,2.08-5.72,4.29-9.61,9.41-12.78.33-.17.58-.04.53.29-.03.16-.11.33-.37.53Z"/>
  <path class="st0" d="M25.11,28.83c-9.25-1.02-13.35,14.96.33,14.45,2.25-.1,4.27-1.55,6.13-3.24,1.52-1.43,4.27-2.5,6.15-2.93.6-.15.65-.64.17-.68-1.28-.14-3.5.58-6.59,2.11-.6.27-1-.26-.6-.64,1.64-1.25,3.91-2.01,4.71-2.02.59-.02.57-.43.29-.54-1.26-.42-3.79.25-9.83,3.88-.93.54-2.17-.46-1.26-1.28,1.38-1.13,2.56-1.85,3.61-2.33.42-.17.54-.67,0-.7-1.05-.02-2.23.39-3.49,1.05-.49.2-.73-.17-.37-.74.53-.78,1.06-1.27,1.69-1.42.43-.09.4-.68-.12-.64-.77.07-1.52.16-2.2.4-.3.07-.46-.17-.25-.44.4-.56,1.14-.97,1.91-1.36.37-.15.4-.49,0-.6-.37-.08-.82-.14-1.36-.17-.62-.03-.46-.5-.01-.8.49-.29.97-.51,1.58-.52.43,0,.53-.71-.49-.83Z"/>
  <path class="st0" d="M36.84,45.41c-.73.34-1.09.3-2.06,1.11-1.22,1.06-3.99,2.21-4.38,1.17-.51-1.56.38-2.64,2.93-3.17.81-.13,1.34-.21,1.79-.31l13.41-3.76c2.36-.59,4.79-.83,8.69.21,3.01.85,5.88,1.94,9.4,3.29.48.17,1.38.42,1.98.36,2.69-.3,5.65.38,5.12,1.82-.73,1.66-2.78,1.04-5.64-.19-.48-.22-.89-.58-1.52-.88-3.33-1.42-6.1-2.43-9.5-3.42-3.49-.87-5.69-.68-8.46-.12-4.26,1.03-6.89,2.01-11.76,3.89Z"/>
  <path class="st0" d="M48.7,38.08c-5.79-4.89-7.59-2.78-8.14,2.79-.02.65-1.06.54-1.05-.07.24-6.76,2.98-10.11,9.84-3.22.26.36-.19.83-.65.5Z"/>
  <path class="st0" d="M52.2,38.09c4.26-4.7,6.18-2.31,8.04,1.26.25.52.92.3.81-.08-1.78-4.79-3.97-8.77-9.52-1.65-.29.5.4.78.67.47Z"/>
  <path class="st0" d="M66.25,21.4c-3.49,0-6.56,2.99-6.56,6.48s3.26,5.5,6.75,5.5,6.57-2.32,6.57-5.81-3.27-6.17-6.76-6.17ZM65.18,31.39c-1.93-.31-2.98-1.62-3.07-3.66-.09-2.02,1.8-3.62,3.82-3.66,2.1-.04,3.81,1.67,4,3.72.22,2.48-2.42,3.97-4.74,3.6Z"/>
  <path class="st0" d="M35.79,21.86c-3.45-.12-6.37,2.28-6.42,6.04-.05,3.44,2.87,6.24,6.48,6.26,3.46.02,6.92-2.61,6.87-6.07-.05-3.59-3.49-6.12-6.92-6.24ZM35.65,31.73c-2.07-.08-3.96-1.85-3.74-3.92.21-2.03,1.74-3.67,3.64-3.73,2.22-.07,4.38,1.79,4.48,3.93.1,2.18-2.19,3.81-4.38,3.72Z"/>
</svg>