<?xml version="1.0" encoding="UTF-8"?>
<svg id="Calque_1" xmlns="http://www.w3.org/2000/svg" version="1.1" viewBox="0 0 100 100">
  <!-- Generator: Adobe Illustrator 29.8.3, SVG Export Plug-In . SVG Version: 2.1.1 Build 3)  -->
  <defs>
    <style>
      .st0 {
        fill: #2a00ff;
      }
    </style>
  </defs>
  <g>
    <path class="st0" d="M22.27,58.85c.29.77.68,1.22,1.27.86,5.42-3.33,10.63-2.97,15.64.96.4.29.82.37,1.2,0,6.63-6.86,13.7-5.92,21.1.64.38.37.78.23,1.2-.26,5.31-6.39,10.62-7.53,16.88-2.24.43.26.88.2,1.19-.55,3.42-7.21,6.87-10.93,11.16-6.6-.39-1.53-.84-3.1-1.36-4.73-1.29-3.87-2.96-9.9-4.01-15.1C82.59,12.42,72.05.36,48.68.36,33.4.36,16.36,12.11,13.17,31.84c-.84,5.21-2.56,11.23-3.77,15.1-.79,2.62-1.41,5.09-1.89,7.43,6.74-4.39,11.46-3.07,14.75,4.49ZM37.54,16.22c10.31,1.4,12.74,1.09,22.86-.64,11.77-1.48,19.24,7.39,20.38,16.35,1.97,17.24-4.9,22.99-19.15,19.15-7.69-2.03-14.77-2.36-20.88,0-14.85,6.11-23.18.98-23.07-17.14,0-11.2,9.46-19.73,19.87-17.73Z"/>
    <path class="st0" d="M93.13,57.82c-3.95-7.59-9.44-1.01-9.93,1.75-.03.23-.11.59-.11.9-.4,11.54-1.33,19.75-5.66,24.59-1.69,1.73-3.01,1.7-1.58-.45,5.19-7.04,4.62-18.24.6-23.61-3.46-4.18-6.94-2.53-10.61,1.84-.24.36-.28.71-.22,1.08,1.97,11.69-.16,19.91-3.55,25.48-.47.88-1.23,1.59-.87-.57,1.22-7.65,4.19-16.61-.32-23.53-6.39-7.67-12.08-8.69-18.53-2.66-.87.88-1.27,1.98-1.41,2.45-2.08,9.5-1.28,17.12,1.68,23.53.46,1.61-.07,1.51-1.26.26-4.8-7.17-6.57-14.81-5.05-25.24.04-.46-.12-.84-.41-1.27-3.73-3.96-5.93-3.37-11.09-.64-.43.32-1.13.78-1.45,1.43-4.78,10.97-2.36,16.15,3.29,23.7.57,1.03.06,1.28-.83.53-6.7-7.75-9.92-13.23-6.47-26.41.06-.42.05-.8-.18-1.25-3.41-6.32-7-6.25-12.29-1.67-2.7,19.22,6.05,29.12,22.15,40.43,1.21.81,2.47,1.22,3.6,1.22h32.67c2.02,0,2.78-.32,3.47-.71,17.23-11.36,27.19-21.68,24.37-41.19Z"/>
  </g>
  <path class="st0" d="M48.08,27.22c-.54,1.08-1.32,1.16-2.28.55-.5-.27-1.04.07-.76.38,1.78,1.91,3.21,2.38,3.79-.64.05-.54-.65-.61-.76-.29Z"/>
  <path class="st0" d="M54.17,27.7c.65.55,1.37.71,2.19.35.45-.2.92.07.67.42-1.63,1.86-2.84,1.55-3.67-.59-.1-.35.39-.5.81-.17Z"/>
  <path class="st0" d="M52.73,20.6c.3-.86.85-.72,1.04-.19,1.2,3.48,5.26.61,7.53-.13,16.92-5.52,22.46,15.51,12.07,20.46-.29.15-.32.42,0,.62,6.66,3.63,4.62,8.05-1.54,9.69-1.31.25-2.18.2-3.19-.13-1.28-.39-2.29-.43-4.2-.19-.65.05-.56-.53.14-.81,5.54-1.73,5.19-4.47-.9-7.28-1.26-.61-2.25-1.08-2.63-1.37-.23-.2-.04-.44.56-.35,1.27.16,2.04.94,2.83.72,18.43-5.25,8.26-24.82-5.99-16-1.43.92-3.79,1.03-4.82.05-1.56-1.55-1.47-3.3-.9-5.1Z"/>
  <path class="st0" d="M46.61,32.18c.61-.72,1.04-.17.77.46-3.34,7.73,10.01,7.07,5.89.16-.16-.33.05-.68.45-.42,1.46,1.13,2.07,3.03.96,5.06-.05.19.14.22.39.22,2,.06,2.19-.72,1.8-2.55-.09-.44.31-.63.53-.29.88,2.42,1.57,4.72-3.71,4.19-1.3.85-3.89,1.19-5.35.18-4.99.74-5.25-1.68-5.52-4.05,0-.51.51-.7.64-.3.44,2.01,1.27,3.1,2.87,3.14.19-.01.32-.09.24-.2-1.55-1.95-1.14-3.83.04-5.6Z"/>
  <path class="st0" d="M39.9,47.73c-.49-.4-.54-.85,0-.74,1.18.18,2.69,0,3.92-1.11,5.24-4.48,8.52-4.39,13.48.24.41.37.86.58,1.41.59.9-.05,1.42.32,1.53.92.11.9-.24,1.2-1.39,1.24-1.24,0-2.07-.68-3.79-2.97-1.85-2.71-6.36-3.06-8.74-.52-2.32,2.37-4.54,3.88-6.42,2.36Z"/>
  <path class="st0" d="M49.79,21.14c0-.99-.96-.44-1.39,0-2.22,2.25-4.12,1.41-5.96,0-15.74-9.83-30.52,7.96-16.47,19.27.39.39.19.67,0,.79-10.66,5.98.83,13.47,10.48,8.06.48-.25.24-.77-.32-.6-5.22,1.58-7.22-1.28-3.32-5.03.34-.28.54-.67.42-1.27,1.07.29,2.31-.27,3.56-.81.52-.3.44-.63-.2-.65-17.58.96-12.43-26.82,5.88-15.37,2.66,1.79,7.1,1.1,7.33-4.39Z"/>
  <path class="st0" d="M34.43,24.47c-3.43.15-6.65,3.35-6.65,6.65s3.74,7.19,7.17,7.19c4.01,0,7.38-3.07,7.38-6.82,0-4.28-4.22-7.18-7.9-7.02ZM36.11,35.24c-2.2,0-3.79-1.59-3.79-3.69s1.59-3.81,3.79-3.81,3.84,1.64,3.84,3.75-1.64,3.75-3.84,3.75Z"/>
  <path class="st0" d="M65.84,25.04c-4.54-.22-7.29,3.27-7.29,6.46s2.39,6.46,6.64,6.46c5.01,0,7.23-2.06,7.23-6.01,0-4.2-3.25-6.9-6.57-6.9ZM64.39,36.1c-2.27,0-4.08-1.77-4.08-3.95s1.77-3.95,4.04-3.95,4,1.83,4,4.01-1.68,3.89-3.96,3.89Z"/>
</svg>