<?xml version="1.0" encoding="UTF-8"?>
<svg id="Calque_1" xmlns="http://www.w3.org/2000/svg" version="1.1" viewBox="0 0 100 100">
  <!-- Generator: Adobe Illustrator 29.8.3, SVG Export Plug-In . SVG Version: 2.1.1 Build 3)  -->
  <defs>
    <style>
      .st0 {
        fill: #2a00ff;
      }
    </style>
  </defs>
  <path class="st0" d="M47.92,54.3c2.08,2.96,6.82,2.81,9.19.23.28-.3.32-.48.63-.57.37-.15,1.08-.16,1.7-.03.3.08.44-.35,0-.72-1.26-1.01-2.41-2.07-3.82-4.1-1.14-1.56-5.22-1.69-6.35,0-1.11,1.83-2.51,3.06-4.09,3.88-1.05.48-.63,1.56,0,1.29.66-.3,1.31-.53,1.95-.61.44-.04.58.32.78.65Z"/>
  <path class="st0" d="M55.97,31.42c-.87-.11-.78-.71,0-.9,3.01-.94,5.55-3.47,7.39-8.29.26-.63.7-1.11,1.36-1.43.48-.22.84.02.64.4l-.7,1.33c-.32.67.13,1.06.8.6l3.99-2.94c.2-.16.42-.22.67-.13l.67.45c.12.14.03.26,0,.4-.07.35.29.42.82.25,1.78-.71,3.13-.32,4.3.48.28.22.34.5.06.62-.48.17-.7.48-.36.64,1.97.93,2.9,1.91,3.17,2.91.1.51-.34.31-.67.17-3.62-1.58-8.33-.48-15.83,4.38-1.94,1.07-4.05,1.41-6.33,1.05Z"/>
  <path class="st0" d="M49.26,30.15c1.11-.06,1.35.23.45.99-1.15.79-3.57-.07-5.56-1.49-5.61-3.55-12.82-4.27-19.17.43-.92.56-1.47.36-1.11-.56.85-1.72,2.03-3.2,4.1-4.03.69-.22.19-.4,0-.84-.13-.27-1.17-.3-2.35-.28-.29-.02-.07-.32.03-.65.09-.21.81-.51,2.42-.93.46-.17,1.32-.24,1.59,0,.64.54,1.02.42,1.11-.37.01-.17-.04-.23-.25-.43-.14-.31.06-.58.54-.62,1.18-.05,2.98.45,5.12,1.24.43.11.82.07.76-.31-.07-.31-.22-.57-.51-.93-.23-.33.13-.56.67-.34,2.05.81,5.46,4.07,9.19,7.91.9.89,1.88,1.39,2.99,1.21Z"/>
  <path class="st0" d="M58.87,46.53c-.84.34-1.48-.11-.8-.88.82-.9,2.11-1.16,4.13-.49,3.72.97,7.39,1.69,9.86-2.47.28-.27.54-.32.78,0,.47.61.63,1.47.48,2.61,2.17-.83,3.7-2.02,3.87-3.97.29-.97.66-.64,1.05,0l.37,2.28c.04.17.19.23.33.18,1.08-.52,1.48-1.79,1.47-3.52.02-.44.66-.47.75,0,1.28,8.9-7.78,16.28-20.14,6.33-.76-.54-1.74-.29-2.15-.08Z"/>
  <path class="st0" d="M44.94,46.96c.4.03.85-.42,0-1.07-.95-.67-2.65-1.36-3.75-.91-4.57,2.03-8.83,2.94-11.41-2.1-.39-1.22-1.23-.79-1.19,0l.46,4.24c0,.29-.33.25-.72.05-2.26-1.35-3.51-2.78-3.7-4.87-.05-.76-.71-1.2-.8-.52l-.17,4.24c-.02.29-.2.29-.27.2l-.77-1.17c-.35-.53-1.05-.59-.88.22,3.36,10.31,14.1,11.53,20.5,2.42.7-.89,1.3-.74,2.69-.72Z"/>
  <path class="st0" d="M91.58,48.43c-2.88-4.93-4.23-9.57-4.79-15.2C84.73,10.08,70.68.35,50.98.27h0s-.08,0-.12,0c-.04,0-.08,0-.12,0h0C30.26.35,15.68,10.08,13.53,33.23c-.58,5.63-1.97,10.27-4.97,15.2-8.69,13.08-2.07,34.29,15.94,44.23.76.38,1.27,1.19,1.27,2.05v3.07c.05,1.15.64,1.71,1.82,1.71h45.67c1.14,0,1.71-.56,1.75-1.71v-3.07c0-.85.5-1.67,1.23-2.05,17.34-9.94,23.71-31.15,15.35-44.23ZM91.12,52.91c-2.05-3.62-5-6.2-10.71-5.53-.62,1.1-1.25,2.1-1.89,2.99,11.61,1.56,11.23,11.27,10.37,21.3-.08.61-.77.45-.85-.19-.76-5.94-2.19-14.85-12.33-17.89-.35.33-.7.64-1.06.94-1.08.69-2.29,1.33-3.61,1.92,8.81,5.45,7.86,19.89,3.55,27.94-.45.86-.95.76-.92,0,.73-7.96.11-17.61-8.67-25.86-2.92.76-6.11,1.27-9.43,1.5.23,13.69-.99,22.95-2.89,30.14-.16.67-.84.54-1.08,0-2.42-6.87-3.18-16.99-2.45-30.05-2.7-.12-5.43-.42-8.12-.95-9.57,5.38-12.63,14.78-13.25,27.26,0,.46-.5.87-.88.28-4.05-6.21-4.36-19.36,6.58-29.66-.98-.37-1.95-.77-2.9-1.2-.82-.39-1.6-.82-2.34-1.28-9.11,2.51-14.88,11.33-15.54,17.7-.07.66-.93.76-1.07.16-1.94-10.24,2.87-20.43,12.66-21.04-.98-1.04-1.81-2.18-2.49-3.42-4.2-.11-6.68,1.22-8.74,2.9-.36.28-.96-.09-.76-.52,1.51-2.98,3.57-5.46,8.17-5.65-1-3.52-.94-7.69.39-12.54,2.57-7.58,7.03-15.09,12.27-19.84-1.06-.37-1.84-.91-1.95-1.88-.05-.7.22-.9.87-.47.83.57,1.73.85,2.67,1.02,1.57-1.22,3.21-2.17,4.87-2.81-.46-.62-.71-1.52-.71-2.83.06-.28.39-.42.55-.2,1.06,1.08,1.9,1.82,2.69,2.33.06,0,.11-.02.16-.03,2.67-.32,5.39-.37,8.09-.15-.02-1.47.2-2.86,1.01-4.05.17-.22.36-.17.54,0,.59,1.4.88,2.82.59,4.27,2.37.31,4.72.81,6.99,1.5.84-.51,1.71-1.28,2.83-2.42.15-.22.48-.08.55.2,0,1.48-.32,2.44-.9,3.06,1.99.75,3.91,1.65,5.72,2.69,1.03-.16,2.02-.44,2.93-1.06.65-.42.91-.23.87.47-.11.92-.82,1.46-1.81,1.83,3.62,2.41,6.69,5.44,8.9,9.02,4.24,7.53,4.97,14.55,3.28,21.2,5.38-2.16,7.97,2.38,9.9,8.48.15.61-.45.72-.67.44Z"/>
  <path class="st0" d="M36.32,28.64c-3.68,0-7.61,3.34-7.61,6.93s3.9,6.35,7.58,6.35,7.13-2.91,7.13-6.5-3.42-6.78-7.1-6.78ZM36.29,38.14c-1.54,0-3.04-1.22-3.04-2.73s1.5-2.73,3.04-2.73,2.8,1.22,2.8,2.73-1.25,2.73-2.8,2.73Z"/>
  <path class="st0" d="M51.33,44.77c-2.86-2.56-3.64-1.54-3.72,1.22.01.32-.48.25-.49-.05-.1-3.36,1.07-4.97,4.5-1.4.13.18-.06.41-.29.23Z"/>
  <path class="st0" d="M53.05,44.55c2.27-2.38,3.02-1.34,3.67.27.08.24.41.1.38-.07-.54-2.18-1.32-3.97-4.33-.4-.16.25.14.35.28.2Z"/>
  <path class="st0" d="M54.99,28.75c4.96-4.17,9.12-8.48,8.87-13.6-.88-1.52-.64-1.94-3.61-2.59-4.25-.55-6.21,1.1-5.65,4.47-.27,3.24,3.26,4.72,4.63,2.81-.7,3.35-2.23,6.26-4.24,8.92Z"/>
  <path class="st0" d="M48.25,27.43c-4.92-2.96-9.22-6.19-10.03-10.92.43-1.54.15-1.88,2.47-2.98,3.41-1.22,5.35-.05,5.56,3.12.86,2.91-1.76,4.87-3.27,3.36,1.24,2.94,3.08,5.34,5.27,7.43Z"/>
  <path class="st0" d="M69.43,28.75c-3.51,0-6.89,3.36-6.89,6.79s3.25,6.53,6.76,6.53,7.09-3.11,7.09-6.53-3.45-6.79-6.96-6.79ZM68.93,39.08c-1.62,0-2.94-.94-2.94-2.52s1.62-3.02,3.24-3.02,2.63,1.44,2.63,3.02-1.31,2.52-2.94,2.52Z"/>
</svg>